<svg xmlns="http://www.w3.org/2000/svg" version="1.1" xmlns:xlink="http://www.w3.org/1999/xlink" xmlns:svgjs="http://svgjs.com/svgjs" width="1440" height="560" preserveAspectRatio="none" viewBox="0 0 1440 560"><g mask="url(&quot;#SvgjsMask1008&quot;)" fill="none"><path d="M674.54 107.95L722.03 107.95L722.03 155.44L674.54 155.44z" fill="rgba(0, 0, 0, 0.16)"></path><path d="M259.61 519.43L306.46 519.43L306.46 521.98L259.61 521.98z" stroke="rgba(255, 255, 255, 0.21)"></path><path d="M287.14 417.16L315.08 417.16L315.08 441.63L287.14 441.63z" stroke="rgba(0, 0, 0, 0.16)"></path><path d="M1237.3 46.64L1279.34 46.64L1279.34 76.68L1237.3 76.68z" fill="rgba(255, 255, 255, 0.21)"></path><path d="M464.06 42.13 a52.73 52.73 0 1 0 105.46 0 a52.73 52.73 0 1 0 -105.46 0z" fill="rgba(255, 255, 255, 0.21)"></path><path d="M1019.29 90.41a11.6 11.6 0 1 0-20.4 11.04z" stroke="rgba(85, 124, 131, 0.16)"></path><path d="M1187.56 164.94L1194.05 164.94L1194.05 196.89L1187.56 196.89z" fill="rgba(0, 0, 0, 0.16)"></path><path d="M805.95 252.25a27.39 27.39 0 1 0-22.68-49.87z" fill="rgba(0, 0, 0, 0.16)"></path><path d="M775.43 153.75L794.61 153.75L794.61 181.8L775.43 181.8z" fill="rgba(255, 255, 255, 0.21)"></path><path d="M1358.47 538.54L1395 538.54L1395 575.07L1358.47 575.07z" stroke="rgba(85, 124, 131, 0.16)"></path><path d="M1148.01 119.16 a12.69 12.69 0 1 0 25.38 0 a12.69 12.69 0 1 0 -25.38 0z" fill="rgba(0, 0, 0, 0.16)"></path><path d="M1029.89-25.57a34.35 34.35 0 1 0-35.7 58.7z" stroke="rgba(0, 0, 0, 0.16)"></path><path d="M81.05 53.61 a44.07 44.07 0 1 0 88.14 0 a44.07 44.07 0 1 0 -88.14 0z" fill="rgba(85, 124, 131, 0.16)"></path><path d="M805.5 242.83a49.71 49.71 0 1 0 1.77 99.4z" stroke="rgba(255, 255, 255, 0.21)"></path><path d="M817.42 150.9L858.64 150.9L858.64 192.12L817.42 192.12z" fill="rgba(0, 0, 0, 0.16)"></path><path d="M1034.81 106.77L1039.32 106.77L1039.32 162.42L1034.81 162.42z" stroke="rgba(0, 0, 0, 0.16)"></path><path d="M615.4 420.93L626.22 420.93L626.22 431.75L615.4 431.75z" fill="rgba(0, 0, 0, 0.16)"></path><path d="M1085.98 454.78L1093.69 454.78L1093.69 462.49L1085.98 462.49z" stroke="rgba(255, 255, 255, 0.21)"></path><path d="M1303.96 55.58L1351.25 55.58L1351.25 110.94L1303.96 110.94z" stroke="rgba(85, 124, 131, 0.16)"></path><path d="M1369.69 1.65 a4.66 4.66 0 1 0 9.32 0 a4.66 4.66 0 1 0 -9.32 0z" stroke="rgba(255, 255, 255, 0.21)"></path><path d="M201.32 155.35 a18.75 18.75 0 1 0 37.5 0 a18.75 18.75 0 1 0 -37.5 0z" fill="rgba(85, 124, 131, 0.16)"></path><path d="M34.38 408.56L42.7 408.56L42.7 410.22L34.38 410.22z" stroke="rgba(255, 255, 255, 0.21)"></path><path d="M1152.91 262.05 a18.22 18.22 0 1 0 36.44 0 a18.22 18.22 0 1 0 -36.44 0z" stroke="rgba(255, 255, 255, 0.21)"></path><path d="M643.81 175.3a9.05 9.05 0 1 0 16.65-7.1z" stroke="rgba(255, 255, 255, 0.21)"></path><path d="M301.04 227.79a29.06 29.06 0 1 0 12.78 56.7z" stroke="rgba(85, 124, 131, 0.16)"></path><path d="M1111.94 243.42L1131.17 243.42L1131.17 280.42L1111.94 280.42z" fill="rgba(0, 0, 0, 0.16)"></path><path d="M1276.96 82.6a10.68 10.68 0 1 0-1.47-21.31z" stroke="rgba(255, 255, 255, 0.21)"></path><path d="M214.52 27.8 a24.24 24.24 0 1 0 48.48 0 a24.24 24.24 0 1 0 -48.48 0z" fill="rgba(0, 0, 0, 0.16)"></path><path d="M1227.79 106.84L1261.96 106.84L1261.96 131.2L1227.79 131.2z" stroke="rgba(0, 0, 0, 0.16)"></path><path d="M1034.67 347.64a9 9 0 1 0-0.7 17.99z" stroke="rgba(255, 255, 255, 0.21)"></path><path d="M80.09 190.66L100.78 190.66L100.78 208.02L80.09 208.02z" fill="rgba(0, 0, 0, 0.16)"></path><path d="M126.54 364.45 a36 36 0 1 0 72 0 a36 36 0 1 0 -72 0z" stroke="rgba(255, 255, 255, 0.21)"></path><path d="M923.07 116.93L923.38 116.93L923.38 139.5L923.07 139.5z" fill="rgba(255, 255, 255, 0.21)"></path></g><defs><mask id="SvgjsMask1008"><rect width="1440" height="560" fill="#ffffff"></rect></mask></defs></svg>