<svg xmlns="http://www.w3.org/2000/svg" version="1.1" xmlns:xlink="http://www.w3.org/1999/xlink" xmlns:svgjs="http://svgjs.com/svgjs" width="1440" height="300" preserveAspectRatio="none" viewBox="0 0 1440 300"><g mask="url(&quot;#SvgjsMask1013&quot;)" fill="none"><path d="M -529.1198205233233,55 C -433.12,91.6 -241.12,221 -49.119820523323305,238 C 142.88,255 238.88,156 430.8801794766767,140 C 622.88,124 718.88,165.8 910.8801794766767,158 C 1102.88,150.2 1285.06,102.4 1390.8801794766766,101 C 1496.7,99.6 1430.18,141 1440,151" stroke="rgba(255, 255, 255, 1)" stroke-width="2"></path><path d="M -822.6484495116196,192 C -726.65,178 -534.65,117.4 -342.64844951161956,122 C -150.65,126.6 -54.65,225.4 137.35155048838044,215 C 329.35,204.6 425.35,79.8 617.3515504883804,70 C 809.35,60.2 932.82,169.8 1097.3515504883803,166 C 1261.88,162.2 1371.47,74 1440,51" stroke="rgba(85, 124, 131, 1)" stroke-width="2"></path><path d="M -491.7692002201284,235 C -395.77,205.6 -203.77,87.2 -11.76920022012844,88 C 180.23,88.8 276.23,235.4 468.2307997798716,239 C 660.23,242.6 756.23,110 948.2307997798715,106 C 1140.23,102 1329.88,226.6 1428.2307997798716,219 C 1526.58,211.4 1437.65,98.2 1440,68" stroke="rgba(85, 124, 131, 1)" stroke-width="2"></path><path d="M -185.83415081413295,84 C -89.83,103.6 102.17,173.8 294.16584918586705,182 C 486.17,190.2 582.17,111.4 774.165849185867,125 C 966.17,138.6 1062.17,251.4 1254.165849185867,250 C 1446.17,248.6 1697,135.8 1734.165849185867,118 C 1771.33,100.2 1498.83,152.4 1440,161" stroke="rgba(85, 124, 131, 1)" stroke-width="2"></path></g><defs><mask id="SvgjsMask1013"><rect width="1440" height="300" fill="#ffffff"></rect></mask></defs></svg>